HIERARCHY
ROOT Hips
{
  OFFSET -243.822 75.5439 913.479
  CHANNELS 6 Xposition Yposition Zposition Zrotation Xrotation Yrotation
  JOINT Spine
  {
    OFFSET 0 8 0
    CHANNELS 6 Xposition Yposition Zposition Zrotation Xrotation Yrotation
    JOINT Spine1
    {
      OFFSET 0 8 0
      CHANNELS 6 Xposition Yposition Zposition Zrotation Xrotation Yrotation
      JOINT Spine2
      {
        OFFSET 0 8 0
        CHANNELS 6 Xposition Yposition Zposition Zrotation Xrotation Yrotation
        JOINT Spine3
        {
          OFFSET 0 8 0
          CHANNELS 6 Xposition Yposition Zposition Zrotation Xrotation Yrotation
          JOINT Neck
          {
            OFFSET 0 17 0
            CHANNELS 6 Xposition Yposition Zposition Zrotation Xrotation Yrotation
            JOINT Head
            {
              OFFSET 0 10.8 0
              CHANNELS 6 Xposition Yposition Zposition Zrotation Xrotation Yrotation
              End Site
              {
                OFFSET 0 20.25 0
              }
            }
          }
          JOINT LeftShoulder
          {
            OFFSET 5 17 0
            CHANNELS 6 Xposition Yposition Zposition Zrotation Xrotation Yrotation
            JOINT LeftShoulder2
            {
              OFFSET 6.45 0 0
              CHANNELS 6 Xposition Yposition Zposition Zrotation Xrotation Yrotation
              JOINT LeftArm
              {
                OFFSET 6.45 0 0
                CHANNELS 6 Xposition Yposition Zposition Zrotation Xrotation Yrotation
                JOINT LeftForeArm
                {
                  OFFSET 0 -32.4 -2
                  CHANNELS 6 Xposition Yposition Zposition Zrotation Xrotation Yrotation
                  JOINT LeftHand
                  {
                    OFFSET 0 -25.65 2
                    CHANNELS 6 Xposition Yposition Zposition Zrotation Xrotation Yrotation
                    JOINT LeftHandThumb1
                    {
                      OFFSET -0.5 -1.5 2.65
                      CHANNELS 6 Xposition Yposition Zposition Zrotation Xrotation Yrotation
                      JOINT LeftHandThumb2
                      {
                        OFFSET 0 -3.8 3.7
                        CHANNELS 6 Xposition Yposition Zposition Zrotation Xrotation Yrotation
                        JOINT LeftHandThumb3
                        {
                          OFFSET 0 -3 2.7
                          CHANNELS 6 Xposition Yposition Zposition Zrotation Xrotation Yrotation
                          End Site
                          {
                            OFFSET 0 -2.3 1.8
                          }
                        }
                      }
                    }
                    JOINT LeftHandIndex
                    {
                      OFFSET 0 -1.9 1.6
                      CHANNELS 6 Xposition Yposition Zposition Zrotation Xrotation Yrotation
                      JOINT LeftHandIndex1
                      {
                        OFFSET 0 -8.3 1.9
                        CHANNELS 6 Xposition Yposition Zposition Zrotation Xrotation Yrotation
                        JOINT LeftHandIndex2
                        {
                          OFFSET 0 -4.5 0
                          CHANNELS 6 Xposition Yposition Zposition Zrotation Xrotation Yrotation
                          JOINT LeftHandIndex3
                          {
                            OFFSET 0 -3.4 0
                            CHANNELS 6 Xposition Yposition Zposition Zrotation Xrotation Yrotation
                            End Site
                            {
                              OFFSET 0 -2.6 0
                            }
                          }
                        }
                      }
                    }
                    JOINT LeftHandMiddle
                    {
                      OFFSET -0.25 -2.2 0.4
                      CHANNELS 6 Xposition Yposition Zposition Zrotation Xrotation Yrotation
                      JOINT LeftHandMiddle1
                      {
                        OFFSET 0 -8.3 1
                        CHANNELS 6 Xposition Yposition Zposition Zrotation Xrotation Yrotation
                        JOINT LeftHandMiddle2
                        {
                          OFFSET 0 -4.65 0
                          CHANNELS 6 Xposition Yposition Zposition Zrotation Xrotation Yrotation
                          JOINT LeftHandMiddle3
                          {
                            OFFSET 0 -3.3 0
                            CHANNELS 6 Xposition Yposition Zposition Zrotation Xrotation Yrotation
                            End Site
                            {
                              OFFSET 0 -2.7 0
                            }
                          }
                        }
                      }
                    }
                    JOINT LeftHandRing
                    {
                      OFFSET -0.5 -2.15 -0.8
                      CHANNELS 6 Xposition Yposition Zposition Zrotation Xrotation Yrotation
                      JOINT LeftHandRing1
                      {
                        OFFSET 0 -7.75 -0.2
                        CHANNELS 6 Xposition Yposition Zposition Zrotation Xrotation Yrotation
                        JOINT LeftHandRing2
                        {
                          OFFSET 0 -3.8 0
                          CHANNELS 6 Xposition Yposition Zposition Zrotation Xrotation Yrotation
                          JOINT LeftHandRing3
                          {
                            OFFSET 0 -3.4 0
                            CHANNELS 6 Xposition Yposition Zposition Zrotation Xrotation Yrotation
                            End Site
                            {
                              OFFSET 0 -2.6 0
                            }
                          }
                        }
                      }
                    }
                    JOINT LeftHandPinky
                    {
                      OFFSET -0.75 -1.75 -1.85
                      CHANNELS 6 Xposition Yposition Zposition Zrotation Xrotation Yrotation
                      JOINT LeftHandPinky1
                      {
                        OFFSET 0 -7.15 -1
                        CHANNELS 6 Xposition Yposition Zposition Zrotation Xrotation Yrotation
                        JOINT LeftHandPinky2
                        {
                          OFFSET 0 -3 0
                          CHANNELS 6 Xposition Yposition Zposition Zrotation Xrotation Yrotation
                          JOINT LeftHandPinky3
                          {
                            OFFSET 0 -2.35 0
                            CHANNELS 6 Xposition Yposition Zposition Zrotation Xrotation Yrotation
                            End Site
                            {
                              OFFSET 0 -2.1 0
                            }
                          }
                        }
                      }
                    }
                  }
                }
              }
            }
          }
          JOINT RightShoulder
          {
            OFFSET -5 17 0
            CHANNELS 6 Xposition Yposition Zposition Zrotation Xrotation Yrotation
            JOINT RightShoulder2
            {
              OFFSET -6.45 0 0
              CHANNELS 6 Xposition Yposition Zposition Zrotation Xrotation Yrotation
              JOINT RightArm
              {
                OFFSET -6.45 0 0
                CHANNELS 6 Xposition Yposition Zposition Zrotation Xrotation Yrotation
                JOINT RightForeArm
                {
                  OFFSET 0 -32.4 -2
                  CHANNELS 6 Xposition Yposition Zposition Zrotation Xrotation Yrotation
                  JOINT RightHand
                  {
                    OFFSET 0 -25.65 2
                    CHANNELS 6 Xposition Yposition Zposition Zrotation Xrotation Yrotation
                    JOINT RightHandThumb1
                    {
                      OFFSET 0.5 -1.5 2.65
                      CHANNELS 6 Xposition Yposition Zposition Zrotation Xrotation Yrotation
                      JOINT RightHandThumb2
                      {
                        OFFSET 0 -3.8 3.7
                        CHANNELS 6 Xposition Yposition Zposition Zrotation Xrotation Yrotation
                        JOINT RightHandThumb3
                        {
                          OFFSET 0 -3 2.7
                          CHANNELS 6 Xposition Yposition Zposition Zrotation Xrotation Yrotation
                          End Site
                          {
                            OFFSET 0 -2.3 1.8
                          }
                        }
                      }
                    }
                    JOINT RightHandIndex
                    {
                      OFFSET 0 -1.9 1.6
                      CHANNELS 6 Xposition Yposition Zposition Zrotation Xrotation Yrotation
                      JOINT RightHandIndex1
                      {
                        OFFSET 0 -8.3 1.9
                        CHANNELS 6 Xposition Yposition Zposition Zrotation Xrotation Yrotation
                        JOINT RightHandIndex2
                        {
                          OFFSET 0 -4.5 0
                          CHANNELS 6 Xposition Yposition Zposition Zrotation Xrotation Yrotation
                          JOINT RightHandIndex3
                          {
                            OFFSET 0 -3.4 0
                            CHANNELS 6 Xposition Yposition Zposition Zrotation Xrotation Yrotation
                            End Site
                            {
                              OFFSET 0 -2.6 0
                            }
                          }
                        }
                      }
                    }
                    JOINT RightHandMiddle
                    {
                      OFFSET 0.25 -2.2 0.4
                      CHANNELS 6 Xposition Yposition Zposition Zrotation Xrotation Yrotation
                      JOINT RightHandMiddle1
                      {
                        OFFSET 0 -8.3 1
                        CHANNELS 6 Xposition Yposition Zposition Zrotation Xrotation Yrotation
                        JOINT RightHandMiddle2
                        {
                          OFFSET 0 -4.65 0
                          CHANNELS 6 Xposition Yposition Zposition Zrotation Xrotation Yrotation
                          JOINT RightHandMiddle3
                          {
                            OFFSET 0 -3.3 0
                            CHANNELS 6 Xposition Yposition Zposition Zrotation Xrotation Yrotation
                            End Site
                            {
                              OFFSET 0 -2.7 0
                            }
                          }
                        }
                      }
                    }
                    JOINT RightHandRing
                    {
                      OFFSET 0.5 -2.15 -0.8
                      CHANNELS 6 Xposition Yposition Zposition Zrotation Xrotation Yrotation
                      JOINT RightHandRing1
                      {
                        OFFSET 0 -7.75 -0.2
                        CHANNELS 6 Xposition Yposition Zposition Zrotation Xrotation Yrotation
                        JOINT RightHandRing2
                        {
                          OFFSET 0 -3.8 0
                          CHANNELS 6 Xposition Yposition Zposition Zrotation Xrotation Yrotation
                          JOINT RightHandRing3
                          {
                            OFFSET 0 -3.4 0
                            CHANNELS 6 Xposition Yposition Zposition Zrotation Xrotation Yrotation
                            End Site
                            {
                              OFFSET 0 -2.6 0
                            }
                          }
                        }
                      }
                    }
                    JOINT RightHandPinky
                    {
                      OFFSET 0.75 -1.75 -1.85
                      CHANNELS 6 Xposition Yposition Zposition Zrotation Xrotation Yrotation
                      JOINT RightHandPinky1
                      {
                        OFFSET 0 -7.15 -1
                        CHANNELS 6 Xposition Yposition Zposition Zrotation Xrotation Yrotation
                        JOINT RightHandPinky2
                        {
                          OFFSET 0 -3 0
                          CHANNELS 6 Xposition Yposition Zposition Zrotation Xrotation Yrotation
                          JOINT RightHandPinky3
                          {
                            OFFSET 0 -2.35 0
                            CHANNELS 6 Xposition Yposition Zposition Zrotation Xrotation Yrotation
                            End Site
                            {
                              OFFSET 0 -2.1 0
                            }
                          }
                        }
                      }
                    }
                  }
                }
              }
            }
          }
        }
      }
    }
  }
  JOINT LeftUpLeg
  {
    OFFSET 8 0 0
    CHANNELS 6 Xposition Yposition Zposition Zrotation Xrotation Yrotation
    JOINT LeftLeg
    {
      OFFSET 0 -45 -1
      CHANNELS 6 Xposition Yposition Zposition Zrotation Xrotation Yrotation
      JOINT LeftFoot
      {
        OFFSET 0 -41 -2
        CHANNELS 6 Xposition Yposition Zposition Zrotation Xrotation Yrotation
        JOINT LeftToeBase
        {
          OFFSET 0 -7.5 12.5
          CHANNELS 6 Xposition Yposition Zposition Zrotation Xrotation Yrotation
          JOINT LeftFootToe
          {
            OFFSET 0 0 4
            CHANNELS 6 Xposition Yposition Zposition Zrotation Xrotation Yrotation
            End Site
            {
              OFFSET 0 0 0
            }
          }
        }
      }
    }
  }
  JOINT RightUpLeg
  {
    OFFSET -8 0 0
    CHANNELS 6 Xposition Yposition Zposition Zrotation Xrotation Yrotation
    JOINT RightLeg
    {
      OFFSET 0 -45 -1
      CHANNELS 6 Xposition Yposition Zposition Zrotation Xrotation Yrotation
      JOINT RightFoot
      {
        OFFSET -17.7327 -40.1844 -8.05833
        CHANNELS 6 Xposition Yposition Zposition Zrotation Xrotation Yrotation
        JOINT RightToeBase
        {
          OFFSET 0 -7.5 12.5
          CHANNELS 6 Xposition Yposition Zposition Zrotation Xrotation Yrotation
          JOINT RightFootToe
          {
            OFFSET 0 0 4
            CHANNELS 6 Xposition Yposition Zposition Zrotation Xrotation Yrotation
            End Site
            {
              OFFSET 0 0 0
            }
          }
        }
      }
    }
  }
}
MOTION
Frames:	3
Frame Time:	0.0111111
-243.822 75.5439 913.479 0.169138 0.206224 -166.281 0 8 1.13687e-13 -1.89628 22.0294 -3.08739 0 8 -2.27374e-13 -3.03554 10.8226 1.97007 0 8 0 -1.46797 5.43757 0.910587 -5.68434e-14 8 -2.27374e-13 -1.46058 5.41084 0.905878 1.13687e-13 17 1.13687e-13 3.087 0.836321 -8.55891 -5.68434e-14 10.8 -1.13687e-13 7.3671 1.21911 -20.114 5 17 0 -4.01946 -1.54845 3.50725 6.45 0 0 -0.648799 -1.22762 -0.492177 6.45 -1.13687e-13 0 75.4819 -24.4804 40.4337 -5.68434e-14 -32.4 -2 -138.647 -34.7039 -125.733 5.68434e-14 -25.65 2 1.16993 1.24291 -23.0447 -0.5 -1.5 2.65 8.67857 -17.6996 -4.86284 0 -3.8 3.7 -0.0745738 20.1647 -0.00536635 -2.84217e-14 -3 2.7 -0.00544224 17.9607 0.0663032 5.68434e-14 -1.9 1.6 -1.59028e-15 0 -6.36111e-15 -5.68434e-14 -8.3 1.9 -2.60799 9.25599 0.294892 5.68434e-14 -4.5 -5.68434e-14 -0.456425 -0.00607548 -0.035159 -2.84217e-14 -3.4 -5.68434e-14 -0.441178 1.50346e-05 -0.0339947 -0.25 -2.2 0.4 -1.59028e-15 0 -6.36111e-15 -8.52651e-14 -8.3 1 -3.37642 6.14997 0.260884 -5.68434e-14 -4.65 2.84217e-14 -58.4296 0.059368 -0.0544865 0 -3.3 -5.68434e-14 -87.2385 -0.0727271 -0.0736626 -0.5 -2.15 -0.8 -1.59028e-15 0 -6.36111e-15 -2.84217e-14 -7.75 -0.2 -5.62503 10.1341 0.777259 5.68434e-14 -3.8 -8.52651e-14 -32.4525 -0.023292 0.0919327 0 -3.4 8.52651e-14 -23.5588 -0.0350216 0.044624 -0.75 -1.75 -1.85 -1.59028e-15 0 -6.36111e-15 0 -7.15 -1 -4.83383 6.66427 0.341169 -5.68434e-14 -3 5.68434e-14 -39.653 0.208401 -0.384269 0 -2.35 5.68434e-14 -28.0351 0.225856 -0.148776 -5 17 0 9.12593 -5.06232 -0.620717 -6.45 -1.13687e-13 2.27374e-13 -1.88776 1.85874 -4.38052 -6.45 5.68434e-14 0 -48.098 -22.7165 22.5155 -2.27374e-13 -32.4 -2 -9.16074 -34.8912 -27.2376 1.13687e-13 -25.65 2 8.53185 2.3817 26.5497 0.5 -1.5 2.65 25.4213 -5.72205 6.69475 0 -3.8 3.7 0.719521 4.78262 -0.334432 0 -3 2.7 0.10202 1.76313 -0.0330335 0 -1.9 1.6 -3.18055e-15 -2.38542e-15 -0 1.13687e-13 -8.3 1.9 0.101302 0.256493 0.0367631 2.27374e-13 -4.5 0 3.12524e-19 -5.56597e-15 0.0032171 0 -3.4 0 -2.45392e-19 4.77083e-15 0.00294706 0.25 -2.2 0.4 -3.18055e-15 -2.38542e-15 -0 -1.13687e-13 -8.3 1 2.18737 6.94924 -0.158946 0 -4.65 -5.68434e-14 48.2182 0.00308943 -0.0087867 1.13687e-13 -3.3 -2.84217e-14 33.2952 -0.00251577 -0.00488304 0.5 -2.15 -0.8 -3.18055e-15 -2.38542e-15 -0 2.27374e-13 -7.75 -0.2 20.22 -8.08098 0.995773 1.13687e-13 -3.8 0 19.1396 0.0110867 -0.0132253 0 -3.4 -2.84217e-14 15.3219 0.00373184 -0.0103822 0.75 -1.75 -1.85 -3.18055e-15 -2.38542e-15 -0 1.13687e-13 -7.15 -1 26.2599 -14.1656 2.18486 0 -3 -5.68434e-14 6.07726 0.291075 -0.267948 -1.13687e-13 -2.35 2.84217e-14 5.29003 0.225356 -0.251046 8 1.42109e-14 -1.13687e-13 -24.2257 -60.1241 -19.077 0 -45 -1 7.32621 62.175 -13.0347 0 -41 -2 1.68333 2.72819 -6.28201 2.84217e-14 -7.5 12.5 1.49089e-16 -3.97569e-16 -0 -7.10543e-14 0 4 -3.18138 -0.342616 42.3025 -8 2.84217e-14 1.13687e-13 -28.6685 -51.584 -42.0985 0 -45 -1 1.28289 67.6383 -2.03931 -17.7327 -40.1844 -8.05833 -4.55338 5.28747 -3.15045 2.84217e-14 -7.5 12.5 2.61353e-15 -15.935 -4.96148e-15 -8.52651e-14 6.66134e-16 4 -7.27248 11.6314 41.6396 
-243.822 75.5439 913.479 0.169138 0.206224 -166.281 0 8 1.13687e-13 -1.99477 21.7174 -3.11057 0 8 -2.27374e-13 -2.98923 10.743 1.96565 0 8 -2.27374e-13 -1.44541 5.39719 0.910526 0 8 -1.13687e-13 -1.43824 5.37108 0.905819 0 17 0 3.1497 0.954114 -8.60875 -1.13687e-13 10.8 -1.13687e-13 7.5417 1.4733 -20.2437 5 17 0 -3.8213 -1.56295 3.27778 6.45 0 0 -0.658643 -1.23574 -0.475171 6.45 0 0 75.3169 -24.4589 39.9981 0 -32.4 -2 -137.561 -35.0903 -125.098 1.13687e-13 -25.65 2 2.92049 -0.90989 -22.5348 -0.5 -1.5 2.65 7.77623 -18.2505 -6.28741 0 -3.8 3.7 -0.0764959 19.9998 0.000211158 -1.42109e-14 -3 2.7 -0.00609092 18.3885 0.0553491 8.52651e-14 -1.9 1.6 -1.59028e-15 9.54166e-15 -7.95139e-15 -5.68434e-14 -8.3 1.9 -2.16519 7.32685 0.181279 5.68434e-14 -4.5 -8.52651e-14 -1.30623 -0.0143653 -0.0940337 0 -3.4 5.68434e-14 -1.2185 1.50346e-05 -0.0875178 -0.25 -2.2 0.4 -1.59028e-15 9.54166e-15 -7.95139e-15 -1.13687e-13 -8.3 1 -2.99548 4.24276 0.167763 -8.52651e-14 -4.65 5.68434e-14 -59.0541 0.0404916 -0.0350199 1.13687e-13 -3.3 0 -86.5664 -0.0644679 -0.066425 -0.5 -2.15 -0.8 -1.59028e-15 9.54166e-15 -7.95139e-15 -8.52651e-14 -7.75 -0.2 -5.04063 9.31235 0.689186 2.84217e-14 -3.8 -2.84217e-14 -31.8175 -0.0144504 0.0604049 0 -3.4 2.84217e-14 -23.18 -0.0223484 0.0296125 -0.75 -1.75 -1.85 -1.59028e-15 9.54166e-15 -7.95139e-15 2.84217e-14 -7.15 -1 -3.72974 5.42386 0.196017 -5.68434e-14 -3 1.13687e-13 -42.7718 0.20976 -0.362744 -1.13687e-13 -2.35 1.13687e-13 -30.0086 0.225992 -0.134398 -5 17 0 9.23537 -5.1684 -0.884889 -6.45 -1.13687e-13 1.13687e-13 -1.90159 1.85869 -4.40109 -6.45 0 0 -47.705 -21.2729 21.443 0 -32.4 -2 -8.50505 -35.679 -26.889 0 -25.65 2 10.1833 1.98109 25.283 0.5 -1.5 2.65 25.0948 -5.42332 6.5713 0 -3.8 3.7 0.737883 4.16211 -0.334149 1.13687e-13 -3 2.7 0.111462 2.45878 -0.0330483 0 -1.9 1.6 -1.11319e-14 -1.59028e-15 -6.36111e-15 0 -8.3 1.9 0.122745 0.804078 0.0367663 1.13687e-13 -4.5 5.68434e-14 6.36165e-15 -9.54166e-15 0.0032171 1.13687e-13 -3.4 8.52651e-14 -7.95139e-15 0 0.00294706 0.25 -2.2 0.4 -1.11319e-14 -1.59028e-15 -6.36111e-15 -1.13687e-13 -8.3 1 2.34391 7.39873 -0.182516 -1.13687e-13 -4.65 -2.84217e-14 48.189 0.00308943 -0.0087867 -1.13687e-13 -3.3 5.68434e-14 33.2758 -0.00251577 -0.00488304 0.5 -2.15 -0.8 -1.11319e-14 -1.59028e-15 -6.36111e-15 1.13687e-13 -7.75 -0.2 21.131 -7.59297 0.952376 2.27374e-13 -3.8 0 19.0909 0.0154787 -0.0184741 0 -3.4 0 15.2896 0.00373184 -0.0144442 0.75 -1.75 -1.85 -1.11319e-14 -1.59028e-15 -6.36111e-15 1.13687e-13 -7.15 -1 28.7222 -13.8966 2.31694 1.13687e-13 -3 -8.52651e-14 4.3417 0.250222 -0.239668 1.13687e-13 -2.35 -8.52651e-14 3.82595 0.200508 -0.224152 8 1.42109e-14 -1.13687e-13 -24.2257 -60.1241 -19.077 0 -45 -1 7.32621 62.175 -13.0347 0 -41 -2 1.68333 2.72819 -6.28201 2.84217e-14 -7.5 12.5 1.49089e-16 -3.97569e-16 -0 -7.10543e-14 0 4 -3.51574 -0.457991 42.2902 -8 2.84217e-14 1.13687e-13 -28.6685 -51.584 -42.0985 0 -45 -1 1.28289 67.6383 -2.03931 -17.7327 -40.1844 -8.05833 -4.55338 5.28747 -3.15045 2.84217e-14 -7.5 12.5 2.59735e-15 -16.1146 -4.96595e-15 -2.84217e-14 0 4 -7.37789 11.6923 41.6668 
-243.822 75.5439 913.479 0.169138 0.206224 -166.281 0 8 1.13687e-13 -2.06457 21.4077 -3.15526 5.68434e-14 8 -3.41061e-13 -2.93946 10.6633 1.9528 0 8 -1.13687e-13 -1.42127 5.35676 0.905844 -5.68434e-14 8 0 -1.41433 5.33124 0.901245 0 17 1.13687e-13 3.20909 1.08244 -8.66073 -5.68434e-14 10.8 -2.27374e-13 7.7116 1.75228 -20.38 5 17 0 -3.6423 -1.59324 3.05074 6.45 -1.13687e-13 -1.13687e-13 -0.666346 -1.24169 -0.455854 6.45 5.68434e-14 0 75.1618 -24.4321 39.6021 5.68434e-14 -32.4 -2 -136.45 -35.4816 -124.385 1.13687e-13 -25.65 2 4.56706 -2.96354 -21.9529 -0.5 -1.5 2.65 6.90035 -18.7342 -7.64844 0 -3.8 3.7 -0.0780636 19.7962 0.00484222 0 -3 2.7 -0.0080882 18.7856 0.0360257 5.68434e-14 -1.9 1.6 1.59028e-15 6.36111e-15 -9.54166e-15 -2.84217e-14 -8.3 1.9 -1.77745 5.24147 0.104416 8.52651e-14 -4.5 -5.68434e-14 -2.30815 -0.0180131 -0.138279 -8.52651e-14 -3.4 0 -2.12153 1.50346e-05 -0.126626 -0.25 -2.2 0.4 1.59028e-15 6.36111e-15 -9.54166e-15 -8.52651e-14 -8.3 1 -2.65267 2.2679 0.110005 -8.52651e-14 -4.65 -5.68434e-14 -59.3678 0.0195902 -0.0167273 1.13687e-13 -3.3 0 -86.0574 -0.0333079 -0.0339691 -0.5 -2.15 -0.8 1.59028e-15 6.36111e-15 -9.54166e-15 -5.68434e-14 -7.75 -0.2 -4.41122 8.3086 0.598954 2.84217e-14 -3.8 -1.13687e-13 -31.5258 -0.00485564 0.0193706 0 -3.4 8.52651e-14 -23.0061 -0.00726288 0.00944422 -0.75 -1.75 -1.85 1.59028e-15 6.36111e-15 -9.54166e-15 -2.84217e-14 -7.15 -1 -2.61845 4.06072 0.0859287 -5.68434e-14 -3 1.13687e-13 -45.6311 0.162569 -0.268938 0 -2.35 1.13687e-13 -31.8055 0.175452 -0.0950958 -5 17 0 9.31678 -5.28047 -1.12115 -6.45 -1.13687e-13 2.27374e-13 -1.91728 1.85863 -4.42275 -6.45 0 -1.13687e-13 -47.2897 -19.7909 20.4033 -1.13687e-13 -32.4 -2 -7.83833 -36.5154 -26.5343 0 -25.65 2 11.7951 1.52479 24.064 0.5 -1.5 2.65 24.7923 -5.05839 6.47255 1.13687e-13 -3.8 3.7 0.755979 3.61661 -0.333933 1.13687e-13 -3 2.7 0.124414 3.20115 -0.0330695 -1.13687e-13 -1.9 1.6 -6.36111e-15 -1.59028e-15 -6.36111e-15 0 -8.3 1.9 0.153741 1.41978 0.036774 1.13687e-13 -4.5 2.84217e-14 4.01816e-19 -7.15625e-15 0.0032171 0 -3.4 5.68434e-14 -4.77087e-15 7.95139e-16 0.00294706 0.25 -2.2 0.4 -6.36111e-15 -1.59028e-15 -6.36111e-15 -1.13687e-13 -8.3 1 2.38978 7.9455 -0.20756 0 -4.65 -5.68434e-14 48.2302 0.00308943 -0.0087867 1.13687e-13 -3.3 -5.68434e-14 33.3032 -0.00251577 -0.00488304 0.5 -2.15 -0.8 -6.36111e-15 -1.59028e-15 -6.36111e-15 2.27374e-13 -7.75 -0.2 22.0088 -7.10891 0.891477 2.27374e-13 -3.8 0 18.9571 0.0241276 -0.0302038 0 -3.4 -5.68434e-14 15.2004 0.00373184 -0.0234226 0.75 -1.75 -1.85 -6.36111e-15 -1.59028e-15 -6.36111e-15 0 -7.15 -1 31.1228 -13.4584 2.36821 0 -3 0 2.76957 0.182842 -0.177633 0 -2.35 -5.68434e-14 2.48116 0.152815 -0.166159 8 1.42109e-14 -1.13687e-13 -24.2257 -60.1241 -19.077 0 -45 -1 7.32621 62.175 -13.0347 0 -41 -2 1.68333 2.72819 -6.28201 2.84217e-14 -7.5 12.5 1.49089e-16 -3.97569e-16 -0 -7.10543e-14 0 4 -3.8507 -0.576648 42.2435 -8 2.84217e-14 1.13687e-13 -28.6685 -51.584 -42.0985 0 -45 -1 1.28289 67.6383 -2.03931 -17.7327 -40.1844 -8.05833 -4.55338 5.28747 -3.15045 2.84217e-14 -7.5 12.5 2.59246e-15 -16.1687 -4.96731e-15 -8.52651e-14 4.44089e-16 4 -7.48637 11.6482 41.6765 
